<svg id="Layer_1" data-name="Layer 1" xmlns="http://www.w3.org/2000/svg" viewBox="0 0 225 60"><defs><style>.cls-1{fill:#8a7967;}.cls-2{fill:#f78f1e;}</style></defs><path class="cls-1" d="M14.174,9.92c.106-.6.318-.92.6-.92s.5.177.955,1.1L25.4,30.062,35.024,9.85c.283-.567.46-.85.778-.85s.531.354.638,1.1l3.221,21.876c.318,2.231.672,3.257,1.734,3.576a7.1,7.1,0,0,0,2.2.354c.319,0,.566.035.566.248,0,.283-.424.389-.92.389-.885,0-5.77-.106-7.186-.212-.814-.071-1.026-.177-1.026-.39,0-.177.141-.283.389-.389.212-.071.319-.531.177-1.522L33.466,18.451h-.142L25.608,34.522c-.815,1.664-.992,1.982-1.31,1.982s-.673-.707-1.239-1.769c-.85-1.629-3.646-7.045-4.071-8.036-.319-.743-2.442-5.2-3.681-7.858h-.142L13.324,32.929a14.191,14.191,0,0,0-.106,1.664c0,.673.46.991,1.062,1.133a6.88,6.88,0,0,0,1.487.177c.283,0,.531.071.531.248,0,.318-.319.389-.85.389-1.487,0-3.079-.106-3.717-.106-.672,0-2.371.106-3.5.106-.354,0-.637-.071-.637-.389,0-.177.212-.248.566-.248A4.559,4.559,0,0,0,9.218,35.8c.991-.213,1.274-1.593,1.451-2.8Z"/><path class="cls-1" d="M52.37,11.761,47.1,11.9c-2.053.07-2.9.247-3.433,1.026a4.2,4.2,0,0,0-.6,1.239c-.071.283-.177.425-.389.425-.248,0-.319-.177-.319-.566,0-.567.672-3.788.743-4.071.107-.46.213-.673.425-.673a8.2,8.2,0,0,0,1.522.425c1.027.106,2.372.177,3.54.177H62.6a16.919,16.919,0,0,0,2.442-.177A8.575,8.575,0,0,1,66,9.531c.248,0,.283.212.283.743,0,.744-.106,3.186-.106,4.107-.035.354-.106.566-.318.566-.284,0-.354-.177-.39-.708l-.035-.389c-.071-.921-1.027-1.912-4.177-1.983l-4.46-.106V26.274c0,3.257,0,6.054.177,7.576.106.991.318,1.77,1.38,1.911a14.873,14.873,0,0,0,1.8.142c.39,0,.567.106.567.283,0,.248-.283.354-.673.354-2.336,0-4.566-.106-5.557-.106-.814,0-3.045.106-4.461.106-.46,0-.708-.106-.708-.354,0-.177.142-.283.567-.283a5.753,5.753,0,0,0,1.274-.142c.708-.141.92-.92,1.027-1.947.177-1.486.177-4.283.177-7.54Z"/><path class="cls-1" d="M72.8,20.044c0-5.38,0-6.371-.071-7.5-.071-1.2-.425-1.8-1.2-1.983a5.042,5.042,0,0,0-1.275-.141c-.354,0-.566-.071-.566-.354,0-.212.283-.283.849-.283,1.346,0,3.576.106,4.6.106.885,0,2.974-.106,4.319-.106.46,0,.743.071.743.283,0,.283-.212.354-.566.354a5.964,5.964,0,0,0-1.062.106c-.956.177-1.239.779-1.31,2.018-.071,1.133-.071,2.124-.071,7.5v6.23c0,3.434,0,6.23.142,7.753.106.955.354,1.593,1.416,1.734a14.857,14.857,0,0,0,1.8.142c.39,0,.567.106.567.283,0,.248-.284.354-.673.354-2.336,0-4.566-.106-5.522-.106-.814,0-3.044.106-4.46.106-.461,0-.708-.106-.708-.354,0-.177.141-.283.566-.283a5.753,5.753,0,0,0,1.274-.142c.708-.141.921-.743,1.027-1.77.177-1.487.177-4.283.177-7.717Z"/><rect class="cls-2" x="7.5" y="44.007" width="73.501" height="7.335"/><path class="cls-1" d="M103.023,13.547c-.88,0-1.165.392-1.165,1.166V20.1a3.307,3.307,0,0,0,.047.726c.048.214.452.274.988.309v.369H99.145v-.369c.536-.035.94-.095.988-.309a3.307,3.307,0,0,0,.047-.726V15.569h-.035l-3.069,5.936H96.79L93.8,15.379H93.78v4.377a3.867,3.867,0,0,0,.06.785c.047.393.369.56,1,.595v.369H92.127v-.369c.642-.035.952-.2,1.011-.595a7,7,0,0,0,.06-.785V14.605a1.643,1.643,0,0,0-1.428-1.058v-.369h2.677L97.5,19.352l3.2-6.174h2.319Z"/><path class="cls-1" d="M106.484,20.1a3.307,3.307,0,0,0,.047.726c.048.214.452.274.988.309v.369h-3.748v-.369c.536-.035.94-.095.988-.309a3.307,3.307,0,0,0,.047-.726V14.582a3.307,3.307,0,0,0-.047-.726c-.048-.214-.452-.274-.988-.309v-.369h3.748v.369c-.536.035-.94.095-.988.309a3.307,3.307,0,0,0-.047.726Z"/><path class="cls-1" d="M115.31,21.505c-1.428-1.832-3.438-4.366-5.211-6.507h-.023v4.758a4.988,4.988,0,0,0,.059.785c.06.393.381.56,1.3.595v.369h-3.01v-.369c.642-.035.964-.2,1.011-.595a4.979,4.979,0,0,0,.06-.785V14.5a1.72,1.72,0,0,0-1.511-.951v-.369h2.772c1.463,1.891,3.307,4.175,4.877,6.114h.024V14.927a6.773,6.773,0,0,0-.072-.785c-.035-.393-.345-.56-1.273-.595v-.369h3v.369c-.63.035-.951.2-1.011.595a4.988,4.988,0,0,0-.059.785v6.578Z"/><path class="cls-1" d="M120.6,20.1a3.239,3.239,0,0,0,.048.726c.047.214.452.274.987.309v.369H117.89v-.369c.535-.035.94-.095.987-.309a3.239,3.239,0,0,0,.048-.726V14.582a3.239,3.239,0,0,0-.048-.726c-.047-.214-.452-.274-.987-.309v-.369h3.747v.369c-.535.035-.94.095-.987.309a3.239,3.239,0,0,0-.048.726Z"/><path class="cls-1" d="M127.1,15.022c-.214-.75-.654-1.559-1.594-1.559a1.118,1.118,0,0,0-1.154,1.214c0,.833.8,1.249,2.094,2.236,1.213.916,1.594,1.582,1.594,2.486,0,1.464-1.452,2.249-3.153,2.249a5.908,5.908,0,0,1-2.26-.381.164.164,0,0,1-.083-.166V19.292h.321c.2,1.083.88,1.928,1.891,1.928a1.478,1.478,0,0,0,1.464-1.5c0-.785-.345-1.321-2.011-2.4a2.787,2.787,0,0,1-1.63-2.272c0-1.178,1.13-2.011,2.772-2.011a6.987,6.987,0,0,1,1.951.191.184.184,0,0,1,.119.166v1.63Z"/><path class="cls-1" d="M133.175,20.1a3.307,3.307,0,0,0,.047.726c.048.214.452.274.988.309v.369h-3.748v-.369c.536-.035.94-.095.988-.309a3.307,3.307,0,0,0,.047-.726V13.618h-1c-1.011,0-1.273.631-1.713,1.38h-.321l.321-1.82H135.9L136.22,15H135.9c-.44-.749-.69-1.38-1.713-1.38h-1.011Z"/><path class="cls-1" d="M136.647,13.178h4.188c1.356,0,2.545.654,2.545,2.106a2.462,2.462,0,0,1-1.76,2.319l1.213,1.868a7.882,7.882,0,0,0,1.487,1.82v.214h-1.713c-.7,0-1.427-2.022-2.367-3.664h-.88V20.1a3.307,3.307,0,0,0,.047.726c.048.214.464.274.988.309v.369h-3.748v-.369c.524-.035.94-.095.988-.309a3.307,3.307,0,0,0,.047-.726V14.582a3.307,3.307,0,0,0-.047-.726c-.048-.214-.464-.274-.988-.309Zm2.713,4.2h.832c1.047,0,1.4-.892,1.4-2.01,0-1.285-.583-1.725-1.4-1.725h-.832Z"/><path class="cls-1" d="M150.279,21.505h-3.747v-.369c.524-.035.94-.095.988-.309a3.307,3.307,0,0,0,.047-.726V18.293l-1.856-3.735c-.368-.761-.773-1.011-1.32-1.011v-.369h3.545v.369c-.9,0-.821.38-.524,1.011l1.487,3.033,1.642-3c.4-.738-.024-1.047-.726-1.047V13.19h2.558v.357c-.333,0-.642.107-.94.666l-1.963,3.545a2.279,2.279,0,0,0-.226.987V20.1a3.239,3.239,0,0,0,.048.726c.048.214.464.274.987.309Z"/><path class="cls-1" d="M156.606,17.4a4.4,4.4,0,0,1,4.52-4.366,4.105,4.105,0,0,1,4.128,4.092,4.465,4.465,0,0,1-4.556,4.521A4.1,4.1,0,0,1,156.606,17.4Zm6.8.059c0-2.783-1.332-4-2.6-4-1.546,0-2.355,1.428-2.355,3.438,0,2.808,1.213,4.319,2.558,4.319C162.649,21.22,163.41,19.673,163.41,17.46Z"/><path class="cls-1" d="M166.229,13.178h5.852v1.915h-.321c-.178-.844-.476-1.475-1.308-1.475h-1.511v3.569h1.13c.749,0,1.071-.464,1.082-1.142h.322v2.772h-.322c-.035-.655-.285-1.19-1.082-1.19h-1.13V20.1a3.307,3.307,0,0,0,.047.726c.048.214.453.274.988.309v.369h-3.747v-.369c.535-.035.939-.095.987-.309a3.239,3.239,0,0,0,.048-.726V14.582a3.239,3.239,0,0,0-.048-.726c-.048-.214-.452-.274-.987-.309Z"/><path class="cls-1" d="M180.4,20.1a3.239,3.239,0,0,0,.048.726c.047.214.452.274.987.309v.369h-3.747v-.369c.535-.035.94-.095.987-.309a3.239,3.239,0,0,0,.048-.726V13.618h-1c-1.011,0-1.273.631-1.713,1.38h-.321l.321-1.82h7.113l.322,1.82h-.322c-.44-.749-.69-1.38-1.713-1.38H180.4Z"/><path class="cls-1" d="M183.868,13.178h4.187c1.356,0,2.546.654,2.546,2.106A2.463,2.463,0,0,1,188.84,17.6l1.214,1.868a7.856,7.856,0,0,0,1.487,1.82v.214h-1.713c-.7,0-1.428-2.022-2.368-3.664h-.88V20.1a3.239,3.239,0,0,0,.048.726c.047.214.463.274.987.309v.369h-3.747v-.369c.523-.035.939-.095.987-.309a3.239,3.239,0,0,0,.048-.726V14.582a3.239,3.239,0,0,0-.048-.726c-.048-.214-.464-.274-.987-.309Zm2.712,4.2h.833c1.046,0,1.4-.892,1.4-2.01,0-1.285-.583-1.725-1.4-1.725h-.833Z"/><path class="cls-1" d="M193.919,18.852l-.476,1.416c-.167.5,0,.868.547.868v.369h-2.32v-.369a1.188,1.188,0,0,0,1.035-.725c.429-.893,1.88-4.759,2.879-7.376h.773c.714,1.963,2.154,5.877,2.594,7.019.238.63.594,1.082,1.106,1.082v.369h-3.319v-.369c.654,0,.761-.369.571-.892l-.488-1.392Zm2.7-.535-1.178-3.474h-.023l-1.285,3.474Z"/><path class="cls-1" d="M200.6,21.136c.536-.035.94-.095.988-.309a3.307,3.307,0,0,0,.047-.726V14.582a3.307,3.307,0,0,0-.047-.726c-.048-.214-.452-.274-.988-.309v-.369h4.342c2.7,0,4.342,1.475,4.342,3.926,0,2.843-2.093,4.4-4.794,4.4H200.6Zm2.713-1.332c0,1.225.166,1.308,1.082,1.308,1.689,0,3.081-1,3.081-4,0-2.261-1.142-3.545-3.3-3.545h-.868Z"/><path class="cls-1" d="M210.262,21.136c.523-.035.939-.095.987-.309a3.239,3.239,0,0,0,.048-.726V14.582a3.239,3.239,0,0,0-.048-.726c-.048-.214-.464-.274-.987-.309v-.369h5.84v1.915h-.321c-.178-.844-.464-1.475-1.3-1.475h-1.511v3.331h.987a1,1,0,0,0,1.071-1.142h.321v2.772h-.321c-.024-.655-.274-1.19-1.071-1.19h-.987v2.7c0,.9.44.976,1.415.976,1.511,0,1.737-.654,2.237-1.713h.321l-.357,2.153h-6.328Z"/><path class="cls-1" d="M94.006,34.278l-.475,1.416c-.167.5,0,.868.547.868v.369h-2.32v-.369a1.19,1.19,0,0,0,1.035-.725c.428-.892,1.88-4.759,2.879-7.376h.773c.714,1.963,2.153,5.877,2.593,7.019.238.63.595,1.082,1.107,1.082v.369H96.826v-.369c.654,0,.761-.368.571-.892l-.488-1.392Zm2.7-.535L95.529,30.27h-.024l-1.284,3.473Z"/><path class="cls-1" d="M107.578,36.931c-1.427-1.832-3.437-4.366-5.21-6.507h-.024v4.758a4.992,4.992,0,0,0,.06.786c.059.392.38.559,1.3.594v.369h-3.009v-.369c.642-.035.963-.2,1.011-.594a5,5,0,0,0,.059-.786V29.925a1.719,1.719,0,0,0-1.51-.952V28.6h2.771c1.463,1.892,3.307,4.176,4.878,6.115h.023V30.353a6.791,6.791,0,0,0-.071-.785c-.036-.393-.345-.559-1.273-.6V28.6h3v.369c-.631.036-.952.2-1.011.6a4.979,4.979,0,0,0-.06.785v6.578Z"/><path class="cls-1" d="M110.159,36.562c.535-.035.939-.095.987-.309a3.235,3.235,0,0,0,.048-.726V30.008a3.239,3.239,0,0,0-.048-.726c-.048-.214-.452-.273-.987-.309V28.6H114.5c2.7,0,4.342,1.475,4.342,3.926,0,2.843-2.094,4.4-4.794,4.4h-3.89Zm2.712-1.332c0,1.225.166,1.309,1.082,1.309,1.69,0,3.082-1,3.082-4,0-2.261-1.142-3.545-3.3-3.545h-.868Z"/><path class="cls-1" d="M126.05,35.527a3.235,3.235,0,0,0,.048.726c.047.214.452.274.987.309v.369h-3.747v-.369c.535-.035.939-.095.987-.309a3.235,3.235,0,0,0,.048-.726V30.008a3.239,3.239,0,0,0-.048-.726c-.048-.214-.452-.273-.987-.309V28.6h3.747v.369c-.535.036-.94.1-.987.309a3.239,3.239,0,0,0-.048.726Z"/><path class="cls-1" d="M134.876,36.931c-1.427-1.832-3.438-4.366-5.21-6.507h-.024v4.758a5.125,5.125,0,0,0,.059.786c.06.392.381.559,1.3.594v.369h-3.01v-.369c.643-.035.964-.2,1.012-.594a5.125,5.125,0,0,0,.059-.786V29.925a1.719,1.719,0,0,0-1.511-.952V28.6h2.772c1.463,1.892,3.307,4.176,4.877,6.115h.024V30.353a7.02,7.02,0,0,0-.071-.785c-.036-.393-.345-.559-1.273-.6V28.6h3v.369c-.631.036-.952.2-1.012.6a5.111,5.111,0,0,0-.059.785v6.578Z"/><path class="cls-1" d="M137.456,36.562c.536-.035.94-.095.988-.309a3.3,3.3,0,0,0,.047-.726V30.008a3.307,3.307,0,0,0-.047-.726c-.048-.214-.452-.273-.988-.309V28.6H141.8c2.7,0,4.342,1.475,4.342,3.926,0,2.843-2.093,4.4-4.794,4.4h-3.89Zm2.713-1.332c0,1.225.166,1.309,1.082,1.309,1.689,0,3.081-1,3.081-4,0-2.261-1.142-3.545-3.295-3.545h-.868Z"/><path class="cls-1" d="M149.779,33.767c0,1.463.452,2.569,2,2.569,1.451,0,2.272-.82,2.272-2.712V30.353a7,7,0,0,0-.06-.785c-.059-.393-.38-.559-1.011-.6V28.6h2.784v.369c-.643.036-.964.2-1.011.6a4.979,4.979,0,0,0-.06.785v3.39a3.008,3.008,0,0,1-3.117,3.331c-2.676,0-3.473-1.285-3.473-3.39V30.008a3.239,3.239,0,0,0-.048-.726c-.047-.214-.464-.273-.987-.309V28.6h3.747v.369c-.523.036-.94.1-.987.309a3.239,3.239,0,0,0-.048.726Z"/><path class="cls-1" d="M161.138,30.448c-.214-.749-.654-1.558-1.594-1.558a1.116,1.116,0,0,0-1.153,1.213c0,.833.8,1.249,2.093,2.236,1.214.916,1.594,1.583,1.594,2.487,0,1.463-1.451,2.248-3.152,2.248a5.9,5.9,0,0,1-2.26-.381.165.165,0,0,1-.084-.166V34.719h.322c.2,1.082.88,1.927,1.891,1.927a1.478,1.478,0,0,0,1.463-1.5c0-.785-.345-1.321-2.01-2.4a2.786,2.786,0,0,1-1.63-2.272c0-1.178,1.13-2.011,2.772-2.011a6.987,6.987,0,0,1,1.951.191.184.184,0,0,1,.119.166v1.63Z"/><path class="cls-1" d="M167.216,35.527a3.235,3.235,0,0,0,.048.726c.047.214.452.274.987.309v.369H164.5v-.369c.535-.035.94-.095.987-.309a3.235,3.235,0,0,0,.048-.726V29.044h-1c-1.011,0-1.273.631-1.713,1.38h-.321l.321-1.82h7.113l.322,1.82h-.322c-.44-.749-.69-1.38-1.713-1.38h-1.011Z"/><path class="cls-1" d="M170.689,28.6h4.187c1.356,0,2.546.654,2.546,2.106a2.464,2.464,0,0,1-1.76,2.319l1.213,1.868a7.882,7.882,0,0,0,1.487,1.82v.214h-1.713c-.7,0-1.428-2.022-2.367-3.664H173.4v2.26a3.235,3.235,0,0,0,.048.726c.047.214.464.274.987.309v.369h-3.747v-.369c.523-.035.94-.095.987-.309a3.235,3.235,0,0,0,.048-.726V30.008a3.239,3.239,0,0,0-.048-.726c-.047-.214-.464-.273-.987-.309Zm2.712,4.2h.833c1.047,0,1.4-.892,1.4-2.01,0-1.285-.583-1.725-1.4-1.725H173.4Z"/><path class="cls-1" d="M184.321,36.931h-3.747v-.369c.523-.035.939-.095.987-.309a3.235,3.235,0,0,0,.048-.726V33.719l-1.856-3.735c-.369-.761-.773-1.011-1.321-1.011V28.6h3.545v.369c-.9,0-.82.381-.523,1.011l1.487,3.033,1.642-3c.4-.738-.024-1.047-.726-1.047v-.357h2.557v.357c-.333,0-.642.107-.939.666l-1.963,3.545a2.265,2.265,0,0,0-.226.987v1.356a3.3,3.3,0,0,0,.047.726c.048.214.464.274.988.309Z"/><path class="cls-1" d="M96.058,45.637c-.188-.659-.575-1.371-1.4-1.371a.983.983,0,0,0-1.016,1.068c0,.732.7,1.1,1.843,1.968,1.067.806,1.4,1.392,1.4,2.188,0,1.287-1.277,1.978-2.774,1.978a5.205,5.205,0,0,1-1.989-.335.145.145,0,0,1-.073-.146V49.4h.283A1.816,1.816,0,0,0,94,51.091a1.3,1.3,0,0,0,1.288-1.319c0-.691-.3-1.162-1.77-2.114a2.453,2.453,0,0,1-1.434-2c0-1.036,1-1.769,2.439-1.769a6.183,6.183,0,0,1,1.717.167.165.165,0,0,1,.1.147v1.434Z"/><path class="cls-1" d="M100.068,50.107a2.866,2.866,0,0,0,.042.639c.042.188.4.241.869.272v.324h-3.3v-.324c.471-.031.827-.084.869-.272a2.866,2.866,0,0,0,.042-.639V45.25a2.866,2.866,0,0,0-.042-.639c-.042-.188-.4-.24-.869-.272v-.324h3.3v.324c-.471.032-.827.084-.869.272a2.866,2.866,0,0,0-.042.639Z"/><path class="cls-1" d="M107.835,51.342c-1.256-1.612-3.025-3.842-4.585-5.726h-.021V49.8a4.334,4.334,0,0,0,.053.69c.052.346.335.493,1.141.524v.324h-2.649v-.324c.566-.031.848-.178.89-.524a4.344,4.344,0,0,0,.052-.69V45.177a1.513,1.513,0,0,0-1.329-.838v-.324h2.439c1.288,1.664,2.91,3.674,4.292,5.38h.021V45.553a6.026,6.026,0,0,0-.063-.691c-.031-.345-.3-.491-1.12-.523v-.324h2.638v.324c-.555.032-.837.178-.89.523a4.489,4.489,0,0,0-.052.691v5.789Z"/><path class="cls-1" d="M114.347,47.825h3.465v.325c-.471.041-.827.094-.869.282a2.879,2.879,0,0,0-.041.628v1.927a8.052,8.052,0,0,1-2.649.481c-2.313,0-4.083-1.162-4.083-3.831,0-1.613,1.173-3.748,4.23-3.748a5.307,5.307,0,0,1,1.968.356c.293.094.408.241.408.408V46h-.283a2.056,2.056,0,0,0-2.135-1.77c-1.8,0-2.554,1.487-2.565,3.319,0,1.916.89,3.569,2.387,3.569,1,0,1.35-.335,1.35-1.392v-.67a2.812,2.812,0,0,0-.042-.628c-.041-.188-.408-.241-1.141-.282Z"/><path class="cls-1" d="M120.116,49.008l-.419,1.246c-.147.439,0,.764.482.764v.324h-2.042v-.324a1.046,1.046,0,0,0,.911-.639c.377-.785,1.654-4.187,2.533-6.49h.681c.628,1.727,1.894,5.171,2.282,6.176.209.555.523.953.973.953v.324H122.6v-.324c.575,0,.67-.325.5-.785l-.429-1.225Zm2.376-.471-1.036-3.057h-.021L120.3,48.537Z"/><path class="cls-1" d="M128.386,50.107a2.866,2.866,0,0,0,.042.639c.042.188.4.241.869.272v.324H126v-.324c.471-.031.827-.084.869-.272a2.866,2.866,0,0,0,.042-.639V45.25a2.866,2.866,0,0,0-.042-.639c-.042-.188-.4-.24-.869-.272v-.324h3.528c1.738,0,2.492.827,2.492,1.947,0,1.476-1.3,2.334-3.183,2.24V47.94c1.037-.031,1.591-.722,1.591-1.874,0-.931-.429-1.643-1.465-1.643h-.576Z"/><path class="cls-1" d="M132.647,47.731a3.876,3.876,0,0,1,3.978-3.842,3.613,3.613,0,0,1,3.632,3.6,3.928,3.928,0,0,1-4.009,3.978A3.606,3.606,0,0,1,132.647,47.731Zm5.988.052c0-2.449-1.173-3.517-2.293-3.517-1.361,0-2.072,1.256-2.072,3.025,0,2.471,1.067,3.8,2.25,3.8C137.965,51.091,138.635,49.73,138.635,47.783Z"/><path class="cls-1" d="M141.116,44.015H144.8c1.193,0,2.24.575,2.24,1.852a2.168,2.168,0,0,1-1.549,2.042l1.068,1.643a6.927,6.927,0,0,0,1.308,1.6v.188h-1.507c-.618,0-1.256-1.779-2.083-3.224H143.5v1.989a2.866,2.866,0,0,0,.042.639c.042.188.408.241.869.272v.324h-3.3v-.324c.461-.031.827-.084.869-.272a2.866,2.866,0,0,0,.042-.639V45.25a2.866,2.866,0,0,0-.042-.639c-.042-.188-.408-.24-.869-.272Zm2.387,3.7h.733c.921,0,1.235-.785,1.235-1.769,0-1.131-.513-1.518-1.235-1.518H143.5Z"/><path class="cls-1" d="M148.287,51.018c.461-.031.827-.084.869-.272a2.866,2.866,0,0,0,.042-.639V45.25a2.866,2.866,0,0,0-.042-.639c-.042-.188-.408-.24-.869-.272v-.324h5.14V45.7h-.282c-.158-.743-.409-1.3-1.141-1.3h-1.33v2.931h.869a.878.878,0,0,0,.942-1h.283v2.439h-.283c-.021-.576-.241-1.047-.942-1.047h-.869V50.1c0,.8.387.858,1.246.858,1.329,0,1.528-.576,1.968-1.507h.282l-.314,1.894h-5.569Z"/></svg>